<svg xmlns="http://www.w3.org/2000/svg" width="119" height="54.797" viewBox="0 0 119 54.797">
  <g id="Logo" transform="translate(-158 -388)">
    <text id="Gos" transform="translate(158 432)" fill="#002054" font-size="45" font-family="CoolveticaRg-Regular, Coolvetica"><tspan x="0" y="0">Gos</tspan></text>
    <g id="Grupo_3" data-name="Grupo 3">
      <g id="Elipse_1" data-name="Elipse 1" transform="translate(239 400)" fill="none" stroke="#002054" stroke-width="4">
        <circle cx="19" cy="19" r="19" stroke="none"/>
        <circle cx="19" cy="19" r="17" fill="none"/>
      </g>
      <path id="Trazado_6" data-name="Trazado 6" d="M731.484,218h12.641a1.41,1.41,0,0,1,.734.563,1.544,1.544,0,0,1,0,.953l-18.312,25.953s-.406.484-.781.484-.719-.484-.719-.484l1.609-19.516h-12.94a1.875,1.875,0,0,1-.481-.667,1.376,1.376,0,0,1,0-.746l18.249-26.021a1.35,1.35,0,0,1,.922-.113,1.536,1.536,0,0,1,.637.731Z" transform="translate(-471.062 196.844)" fill="#0071ff"/>
    </g>
  </g>
</svg>
